<?xml version="1.0" standalone="no"?>
<!DOCTYPE svg PUBLIC "-//W3C//DTD SVG 20010904//EN"
 "http://www.w3.org/TR/2001/REC-SVG-20010904/DTD/svg10.dtd">
<svg version="1.0" xmlns="http://www.w3.org/2000/svg"
 width="512.000000pt" height="512.000000pt" viewBox="0 0 512.000000 512.000000"
 preserveAspectRatio="xMidYMid meet">

<g transform="translate(0.000000,512.000000) scale(0.100000,-0.100000)"
fill="#000000" stroke="none">
<path d="M2063 3580 c-18 -4 -40 -14 -49 -21 -60 -50 -59 -250 2 -356 48 -83
158 -105 226 -44 35 32 47 94 36 190 -16 134 -59 212 -126 231 -41 11 -44 11
-89 0z"/>
<path d="M1300 3438 c-100 -28 -123 -129 -70 -301 36 -114 92 -167 177 -167
91 0 130 61 120 189 -11 143 -59 250 -123 277 -38 16 -55 16 -104 2z"/>
<path d="M1785 3090 c-86 -18 -135 -47 -135 -82 0 -29 80 -102 127 -116 36
-11 47 -10 73 3 41 21 81 85 87 140 5 41 4 45 -21 55 -31 11 -73 11 -131 0z"/>
<path d="M2421 2119 c-55 -33 -200 -90 -301 -117 -89 -24 -111 -26 -345 -27
l-250 -2 -3 -29 c-1 -16 3 -71 11 -122 8 -51 11 -95 8 -97 -4 -2 -35 -7 -69
-11 -34 -3 -62 -8 -62 -10 0 -2 18 -21 41 -41 44 -40 93 -127 118 -212 l17
-54 27 84 c61 184 131 293 231 356 53 34 100 49 213 69 162 27 300 7 482 -70
45 -20 85 -36 87 -36 2 0 -21 30 -51 68 -65 80 -92 134 -106 211 -6 31 -12 57
-13 58 -1 1 -17 -7 -35 -18z"/>
<path d="M2070 1623 c-79 -51 -141 -140 -219 -313 -84 -188 -175 -268 -246
-216 -17 12 -22 12 -44 -5 -76 -60 -223 25 -311 180 -59 104 -59 104 -60 36 0
-33 11 -105 24 -160 23 -94 87 -289 107 -327 5 -9 5 -43 1 -77 -10 -72 -2 -88
62 -126 49 -29 149 -65 180 -65 40 0 104 31 109 53 16 67 183 540 226 641 54
124 74 160 125 214 52 57 99 75 203 80 195 9 291 -43 563 -304 144 -138 197
-173 258 -174 35 0 82 36 82 64 0 60 -45 101 -265 244 -324 210 -461 269 -650
279 -98 5 -101 4 -145 -24z"/>
<path d="M2323 578 c-22 -35 -59 -95 -82 -135 -23 -40 -46 -75 -51 -78 -31
-19 4 -25 148 -25 86 0 180 3 207 6 l50 6 -76 77 c-41 42 -94 107 -116 144
l-40 68 -40 -63z"/>
</g>
</svg>
